<?xml version="1.0" encoding="UTF-8"?>
<svg width="100%" height="100%" viewBox="0 0 301 192" version="1.1" xmlns="http://www.w3.org/2000/svg" xmlns:xlink="http://www.w3.org/1999/xlink">
    <!-- Generator: Sketch 46.2 (44496) - http://www.bohemiancoding.com/sketch -->
    <title>hero</title>
    <desc>Created with Sketch.</desc>
    <defs></defs>
    <g id="Page-1" stroke="none" stroke-width="1" fill="none" fill-rule="evenodd">
        <g id="Desktop-HD" transform="translate(-574.000000, -291.000000)">
            <g id="Group">
                <g id="hero" transform="translate(574.500000, 291.583774)">
                    <rect id="Rectangle-11" fill="#252423" x="0.135903652" y="0.353597495" width="300" height="190.550303"></rect>
                    <polygon id="hv3" fill="#686868" points="150.135904 154.630616 261.94401 92.1235596 150.135904 31.1410655 38.327797 92.8858408"></polygon>
                    <polygon id="hv2" fill="#838181" points="150.135904 145.992237 261.94401 83.4851809 150.135904 22.5026868 38.327797 84.2474621"></polygon>
                    <polygon id="hv1" fill="#FDF1BF" points="150.135904 136.175898 261.94401 73.6688414 150.135904 12.6863473 38.327797 74.4311226"></polygon>
                    <g id="asic" >
                        <polygon id="Rectangle-2" fill="#565454" points="0.34565816 17.282908 29.7266017 33.8744996 29.7266017 62.2184687 0 44.9355607"></polygon>
                        <polygon id="Rectangle-2" fill="#353535" transform="translate(44.935561, 39.750688) scale(-1, 1) translate(-44.935561, -39.750688) " points="29.7266017 17.282908 60.1445198 33.8744996 60.1445198 62.2184687 30.0722599 44.9355607"></polygon>
                        <polygon id="Rectangle-2" fill="#444444" transform="translate(30.245089, 16.937250) scale(-1, 1) translate(-30.245089, -16.937250) " points="30.0722599 0 60.1445198 17.282908 30.7635762 33.8744996 0.34565816 17.282908"></polygon>
                    </g>
                </g>
            </g>
        </g>
    </g>
</svg>