<?xml version="1.0" encoding="UTF-8"?>
<svg width="610px" height="516px" viewBox="0 0 610 516" version="1.1" xmlns="http://www.w3.org/2000/svg" xmlns:xlink="http://www.w3.org/1999/xlink">
    <!-- Generator: Sketch 46.2 (44496) - http://www.bohemiancoding.com/sketch -->
    <title>Group 5</title>
    <desc>Created with Sketch.</desc>
    <defs></defs>
    <g id="Page-1" stroke="none" stroke-width="1" fill="none" fill-rule="evenodd">
        <g id="Desktop-HD" transform="translate(-658.000000, -2534.000000)">
            <g id="Group-5" transform="translate(505.000000, 2521.500000)">
                <rect id="Rectangle-10" x="0" y="0" width="938.548029" height="517.966667"></rect>
                <polygon id="Rectangle-6" fill="#252423" points="153 404.867065 546.918725 196.623573 740.800598 310.490704 365.346813 527.966667"></polygon>
                <polygon id="Rectangle-5" fill="#7E7E7E" points="154.02583 240.734263 530.505445 23.2583001 547.944555 33.5166003 171.46494 250.992563"></polygon>
                <polygon id="Rectangle-5" fill="#7E7E7E" transform="translate(640.269257, 79.678951) scale(-1, 1) translate(-640.269257, -79.678951) " points="518.195485 136.099602 732.53926 13 762.343028 30.4391102 537.686255 146.357902"></polygon>
                <polygon id="Rectangle-4" fill="#2F2F2F" points="154.02583 240.734263 171.46494 250.992563 170.43911 415.125366 153 404.867065"></polygon>
                <polygon id="Rectangle-4" fill="#373737" transform="translate(752.084728, 223.808068) scale(-1, 1) translate(-752.084728, -223.808068) " points="741.826428 136.099602 761.317198 146.357902 762.343028 311.516534 744.903918 300.232404"></polygon>
                <polygon id="Rectangle" fill="#373737" points="171.46494 250.992563 547.944555 33.5166003 546.918725 198.675233 170.43911 415.125366"></polygon>
                <polygon id="Rectangle-3" fill="#272727" points="547.944555 33.5166003 742.852258 146.357902 741.826428 311.516534 546.918725 198.675233"></polygon>
                <g id="Group-3" transform="translate(246.234437, 336.031160)">
                    <polygon id="Rectangle-2" fill="#9E9262" points="1.21654595 32.8628573 58.0771612 63.5942015 58.0771612 116.093581 0.547597531 84.0817644"></polygon>
                    <polygon id="Rectangle-2" fill="#FDF1BF" points="116.944622 32.8628573 58.0771612 63.5942015 58.0771612 116.093581 116.275673 84.0817644"></polygon>
                    <polygon id="Rectangle-2" fill="#C9BA7D" points="59.415058 0.851040325 1.21654595 32.8628573 58.0771612 63.5942015 116.944622 32.8628573"></polygon>
                </g>
                <g id="Group-2" transform="translate(388.425596, 304.051383)">
                    <polygon id="Rectangle-2" fill="#746868" points="0.330629676 17.8795838 28.4341521 34.6110935 28.4341521 63.1940891 0 45.7654332"></polygon>
                    <polygon id="Rectangle-2" fill="#8D6D6D" points="57.5295636 17.8795838 28.4341521 34.6110935 28.4341521 63.1940891 57.198934 45.7654332"></polygon>
                    <polygon id="Rectangle-2" fill="#A98888" points="29.0954115 0.450927927 0.330629676 17.8795838 28.4341521 34.6110935 57.5295636 17.8795838"></polygon>
                </g>
                <g id="Group-2" transform="translate(479.507366, 336.031160)">
                    <polygon id="Rectangle-2" fill="#746868" points="0.330629676 17.8795838 28.4341521 34.6110935 28.4341521 63.1940891 0 45.7654332"></polygon>
                    <polygon id="Rectangle-2" fill="#8D6D6D" points="57.5295636 17.8795838 28.4341521 34.6110935 28.4341521 63.1940891 57.198934 45.7654332"></polygon>
                    <polygon id="Rectangle-2" fill="#A98888" points="29.0954115 0.450927927 0.330629676 17.8795838 28.4341521 34.6110935 57.5295636 17.8795838"></polygon>
                </g>
                <g id="Group-2" transform="translate(388.384110, 399.990715)">
                    <polygon id="Rectangle-2" fill="#746868" points="0.330629676 17.8795838 28.4341521 34.6110935 28.4341521 63.1940891 0 45.7654332"></polygon>
                    <polygon id="Rectangle-2" fill="#8D6D6D" points="57.5295636 17.8795838 28.4341521 34.6110935 28.4341521 63.1940891 57.198934 45.7654332"></polygon>
                    <polygon id="Rectangle-2" fill="#A98888" points="29.0954115 0.450927927 0.330629676 17.8795838 28.4341521 34.6110935 57.5295636 17.8795838"></polygon>
                </g>
                <g id="Group-2" transform="translate(469.981474, 240.734263)">
                    <polygon id="Rectangle-2" fill="#34836D" points="0.438321067 23.7032512 37.6956118 45.884482 37.6956118 83.777418 0 60.6719692"></polygon>
                    <polygon id="Rectangle-2" fill="#3CDDAF" points="76.2678657 23.7032512 37.6956118 45.884482 37.6956118 83.777418 75.8295446 60.6719692"></polygon>
                    <polygon id="Rectangle-2" fill="#4DB497" points="38.5722539 0.597802388 0.438321067 23.7032512 37.6956118 45.884482 76.2678657 23.7032512"></polygon>
                </g>
                <g id="Group-2" transform="translate(566.695845, 269.330445)">
                    <polygon id="Rectangle-2" fill="#34836D" points="0.438321067 23.7032512 37.6956118 45.884482 37.6956118 83.777418 0 60.6719692"></polygon>
                    <polygon id="Rectangle-2" fill="#3CDDAF" points="76.2678657 23.7032512 37.6956118 45.884482 37.6956118 83.777418 75.8295446 60.6719692"></polygon>
                    <polygon id="Rectangle-2" fill="#4DB497" points="38.5722539 0.597802388 0.438321067 23.7032512 37.6956118 45.884482 76.2678657 23.7032512"></polygon>
                </g>
            </g>
        </g>
    </g>
</svg>