<?xml version="1.0" encoding="UTF-8"?>
<svg width="2560px" height="921px" viewBox="0 0 2560 921" version="1.1" xmlns="http://www.w3.org/2000/svg" xmlns:xlink="http://www.w3.org/1999/xlink">
    <!-- Generator: Sketch 46.2 (44496) - http://www.bohemiancoding.com/sketch -->
    <title>hero</title>
    <desc>Created with Sketch.</desc>
    <defs></defs>
    <g id="Page-1" stroke="none" stroke-width="1" fill="none" fill-rule="evenodd">
        <g id="hero" transform="translate(6.000000, 3.000000)">
            <g id="squares" transform="translate(0.552547, 0.000000)" stroke-opacity="0.53" stroke="#FFFFFF" stroke-width="7">
                <polygon id="Path-2" points="823.84039 913.535255 1647.04121 453.319428 823.84039 4.32837646 0.63956754 458.931816"></polygon>
                <polygon id="Path-2" points="1722.2799 910.169217 2545.48072 449.953389 1722.2799 0.962338237 899.079074 455.565778"></polygon>
            </g>
            <polygon id="base_3" fill="#686868" points="1299.54707 792.712072 1869.04707 474.329356 1299.54707 163.712072 730.047068 478.212072"></polygon>
            <polygon id="base_2" fill="#838181" points="1299.54707 748.712072 1869.04707 430.329356 1299.54707 119.712072 730.047068 434.212072"></polygon>
            <polygon id="base_1" fill="#FDF1BF" points="1299.54707 698.712072 1869.04707 380.329356 1299.54707 69.712072 730.047068 384.212072"></polygon>
            <g id="asic" transform="translate(1149.694350, 191.588988)">
                <polygon id="Rectangle-2" fill="#565454" points="1.76062656 88.0313279 151.413884 172.541403 151.413884 316.91278 0 228.881452"></polygon>
                <polygon id="Rectangle-2" fill="#353535" transform="translate(228.881452, 202.472054) scale(-1, 1) translate(-228.881452, -202.472054) " points="151.413884 88.0313279 306.349021 172.541403 306.349021 316.91278 153.17451 228.881452"></polygon>
                <polygon id="Rectangle-2" fill="#444444" transform="translate(154.054824, 86.270701) scale(-1, 1) translate(-154.054824, -86.270701) " points="153.17451 0 306.349021 88.0313279 156.695764 172.541403 1.76062656 88.0313279"></polygon>
            </g>
        </g>
    </g>
</svg>